<?xml version="1.0" encoding="utf-8"?>
<!-- Generator: Adobe Illustrator 24.3.0, SVG Export Plug-In . SVG Version: 6.00 Build 0)  -->
<svg version="1.1" id="Layer_1" xmlns="http://www.w3.org/2000/svg" xmlns:xlink="http://www.w3.org/1999/xlink" x="0px" y="0px"
	 viewBox="0 0 21 19" style="enable-background:new 0 0 21 19;" xml:space="preserve">
<style type="text/css">
	.st0{fill:#000;}
</style>
<g id="Group_628" transform="translate(0 0)">
	<path id="Path_62" class="st0" d="M8.8,14.9c-0.5,0-1.1,0.2-1.4,0.6C7,15.9,6.8,16.4,6.8,17c0,1.1,0.9,2,2,2l0,0c1.1,0,2-0.9,2-2
		C10.9,15.8,10,14.9,8.8,14.9z M8.8,17.6c-0.3,0-0.6-0.3-0.6-0.6c0-0.3,0.3-0.6,0.6-0.6c0.3,0,0.6,0.3,0.6,0.6
		C9.4,17.3,9.2,17.6,8.8,17.6L8.8,17.6z"/>
	<path id="Path_63" class="st0" d="M15.2,14.9c-0.5,0-1.1,0.2-1.4,0.6c-0.4,0.4-0.6,0.9-0.6,1.4c0,1.1,0.9,2,2,2l0,0
		c1.1,0,2-0.9,2-2C17.2,15.8,16.3,14.9,15.2,14.9z M15.2,17.6c-0.3,0-0.6-0.3-0.6-0.6c0-0.3,0.3-0.6,0.6-0.6l0,0
		c0.3,0,0.6,0.3,0.6,0.6C15.8,17.3,15.5,17.6,15.2,17.6z"/>
	<path id="Path_64" class="st0" d="M20.7,3.6c-0.2-0.3-0.6-0.4-0.9-0.4H4.2L3.9,1.8C3.8,1.4,3.6,1.1,3.2,1L1,0.1C0.9,0,0.8,0,0.7,0
		C0.3,0,0,0.3,0,0.7C0,1,0.2,1.2,0.4,1.3l2.1,0.8L5,13.5c0.1,0.5,0.6,0.9,1.2,0.9h12.1c0.4,0,0.7-0.3,0.7-0.7c0-0.4-0.3-0.7-0.7-0.7
		h-12l-0.2-1h12.3c0.6,0,1.1-0.4,1.2-0.9L21,4.5C21,4.2,20.9,3.9,20.7,3.6z M18.2,10.8H5.8L4.5,4.5h15.1L18.2,10.8z"/>
</g>
</svg>
