<svg width="16" height="16" viewBox="0 0 32 32" fill="none" xmlns="http://www.w3.org/2000/svg">
    <path d="M23.4667 7.46667H1.06667C0.477321 7.46667 0 7.94399 0 8.53333V30.9333C0 31.5227 0.477321 32 1.06667 32H23.4667C24.056 32 24.5333 31.5227 24.5333 30.9333V8.53333C24.5333 7.94399 24.056 7.46667 23.4667 7.46667ZM22.4 29.8667H2.13333V9.6H22.4V29.8667ZM32 1.06667V23.4667C32 24.056 31.5227 24.5333 30.9333 24.5333H26.6667C26.0773 24.5333 25.6 24.056 25.6 23.4667C25.6 22.8773 26.0773 22.4 26.6667 22.4H29.8667V2.13333H9.6V5.33333C9.6 5.92268 9.12268 6.4 8.53333 6.4C7.94399 6.4 7.46667 5.92268 7.46667 5.33333V1.06667C7.46667 0.477321 7.94399 0 8.53333 0H30.9333C31.5227 0 32 0.477321 32 1.06667Z" fill="#ffffff"></path>
</svg>