<svg width="36" height="36" viewBox="0 0 36 36" fill="none" xmlns="http://www.w3.org/2000/svg">
<g id="Facebook.svg" clip-path="url(#clip0_362_62)">
<path id="Vector" d="M36 18C36 8.1 27.9 0 18 0C8.1 0 0 8.1 0 18C0 27.9 8.1 36 18 36H18.36V21.96H14.49V17.46H18.36V14.13C18.36 10.26 20.7 8.19 24.12 8.19C25.74 8.19 27.18 8.28 27.63 8.37V12.42H25.2C23.31 12.42 22.95 13.32 22.95 14.58V17.46H27.45L26.91 21.96H23.04V35.28C30.51 33.12 36 26.19 36 18Z" fill="#5A5A5A"/>
</g>
<defs>
<clipPath id="clip0_362_62">
<rect width="36" height="36" fill="white"/>
</clipPath>
</defs>
</svg>
