<?xml version="1.0" encoding="utf-8"?>
<!-- Generator: Adobe Illustrator 24.3.0, SVG Export Plug-In . SVG Version: 6.00 Build 0)  -->
<svg version="1.1" id="Layer_1" xmlns="http://www.w3.org/2000/svg" xmlns:xlink="http://www.w3.org/1999/xlink" x="0px" y="0px"
	 viewBox="0 0 20 17" style="enable-background:new 0 0 20 17;" xml:space="preserve">
<path id="Path_60" fill="#000" d="M18.4,1.7c-1.1-1.1-2.5-1.7-4-1.7c-1.5,0-2.9,0.6-4,1.6L10,2L9.6,1.6C8.5,0.6,7.1,0,5.6,0
	c-1.5,0-3,0.6-4,1.7c-2.1,2.2-2.1,5.7,0,7.9l6.8,6.8c0.4,0.4,1,0.6,1.6,0.6c0.6,0,1.1-0.2,1.6-0.6l6.8-6.7
	C20.5,7.5,20.6,3.9,18.4,1.7z M17.3,8.6l-6.8,6.7c-0.2,0.2-0.4,0.2-0.6,0.2c-0.2,0-0.4-0.1-0.6-0.2L2.6,8.6c-0.8-0.8-1.3-1.8-1.3-3
	c0-1.1,0.4-2.2,1.2-3c0.8-0.8,1.9-1.3,3-1.3c1.1,0,2.2,0.5,3,1.3L9,3C9.9,4,9.3,3.3,10,4l1.4-1.4c0.8-0.8,1.9-1.2,3-1.2
	c1.1,0,2.2,0.5,3,1.3C19,4.3,19,7,17.3,8.6z"/>
</svg>
