<?xml version="1.0" encoding="utf-8"?>
<!-- Generator: Adobe Illustrator 24.3.0, SVG Export Plug-In . SVG Version: 6.00 Build 0)  -->
<svg version="1.1" id="Layer_1" xmlns="http://www.w3.org/2000/svg" xmlns:xlink="http://www.w3.org/1999/xlink" x="0px" y="0px"
	 viewBox="0 0 20 20" style="enable-background:new 0 0 20 20;" xml:space="preserve">
<style type="text/css">
	.st0{fill:#000;}
</style>
<path id="Union_1" class="st0" d="M11.7,18.3v-0.8H9c-1.3,0-2.3-1-2.3-2.3V14c0-0.3,0.3-0.6,0.6-0.6s0.6,0.3,0.6,0.6v1.2
	c0,0.6,0.5,1,1,1h2.7V3.3c0-0.7,0.5-1.3,1.1-1.6l1.5-0.5H9c-0.6,0-1,0.5-1,1v1.2c0,0.3-0.3,0.6-0.6,0.6S6.7,3.9,6.7,3.5V2.3
	C6.7,1,7.7,0,9,0h9.4c0,0,0.1,0,0.1,0C19.3,0.1,20,0.8,20,1.7v15c0,0.7-0.5,1.3-1.1,1.6l-5,1.7C13.7,20,13.5,20,13.3,20
	C12.4,20,11.7,19.3,11.7,18.3z M12.9,18.3c0,0.2,0.2,0.4,0.5,0.4c0,0,0.1,0,0.1,0l5-1.7c0.2-0.1,0.3-0.2,0.3-0.4v-15
	c0-0.2-0.2-0.4-0.4-0.4c-0.1,0-0.1,0-0.1,0l-5,1.7C13,3,12.9,3.2,12.9,3.3L12.9,18.3L12.9,18.3z M5,12.3c-0.2-0.2-0.2-0.6,0-0.9
	L7,9.4H0.6C0.3,9.4,0,9.1,0,8.8c0,0,0,0,0,0c0-0.3,0.3-0.6,0.6-0.6c0,0,0,0,0,0H7L5,6.1C4.7,5.8,4.7,5.4,5,5.2
	c0.2-0.2,0.6-0.2,0.9,0c0,0,0,0,0,0L9,8.3c0.1,0.1,0.2,0.4,0.2,0.6l0,0v0l0,0v0l0,0v0l0,0v0l0,0v0l0,0v0l0,0C9.1,9,9.1,9.1,9,9.2
	l-3.1,3.1c-0.1,0.1-0.3,0.2-0.4,0.2C5.3,12.5,5.1,12.4,5,12.3L5,12.3z"/>
</svg>
