<svg width="36" height="36" viewBox="0 0 36 36" fill="none" xmlns="http://www.w3.org/2000/svg">
<g id="Instagram.svg" clip-path="url(#clip0_362_71)">
<g id="Group">
<path id="Vector" d="M18 36C27.9411 36 36 27.9411 36 18C36 8.05887 27.9411 0 18 0C8.05887 0 0 8.05887 0 18C0 27.9411 8.05887 36 18 36Z" fill="#5A5A5A"/>
<g id="Group_2">
<path id="Vector_2" d="M27.9 12.9599C27.72 11.6099 27.27 10.4399 26.28 9.53992C25.2 8.54992 23.94 8.09992 22.59 8.00992C20.25 7.91992 14.58 7.82992 12.6 8.09992C10.35 8.45992 8.82 9.80992 8.19 12.0599C7.74 13.7699 7.83 21.6899 8.1 23.3999C8.46 25.7399 9.9 27.1799 12.15 27.8099C13.77 28.1699 21.6 28.1699 23.4 27.8999C25.74 27.5399 27.18 26.1899 27.81 23.8499C28.26 22.0499 28.08 14.5799 27.9 12.9599ZM26.1 23.0399C25.83 24.8399 24.66 25.9199 22.86 26.0999C21.24 26.2799 13.95 26.3699 12.42 25.9199C10.98 25.5599 10.17 24.4799 9.9 23.0399C9.63 21.6899 9.63 14.6699 9.9 12.8699C10.17 11.1599 11.34 9.98992 13.14 9.80992C14.94 9.62992 21.33 9.62992 23.04 9.80992C24.84 10.0799 25.92 11.2499 26.1 13.0499C26.28 14.7599 26.37 21.2399 26.1 23.0399ZM18 12.7799C15.12 12.7799 12.78 15.1199 12.78 17.9999C12.78 20.8799 15.12 23.2199 18 23.2199C20.88 23.2199 23.22 20.8799 23.22 17.9999C23.22 15.1199 20.88 12.7799 18 12.7799ZM18 21.3299C16.11 21.3299 14.67 19.7999 14.67 17.9099C14.67 16.0199 16.2 14.5799 18.09 14.5799C19.98 14.5799 21.42 16.1099 21.42 17.9999C21.42 19.8899 19.8 21.3299 18 21.3299ZM24.57 12.5999C24.57 13.2299 24.03 13.7699 23.31 13.7699C22.68 13.7699 22.14 13.2299 22.14 12.5099C22.14 11.8799 22.68 11.3399 23.4 11.3399C24.03 11.4299 24.57 11.9699 24.57 12.5999Z" fill="white"/>
<path id="Vector_3" d="M27.9 12.9599C27.72 11.6099 27.27 10.4399 26.28 9.53992C25.2 8.54992 23.94 8.09992 22.59 8.00992C20.25 7.91992 14.58 7.82992 12.6 8.09992C10.35 8.45992 8.82 9.80992 8.19 12.0599C7.74 13.7699 7.83 21.6899 8.1 23.3999C8.46 25.7399 9.9 27.1799 12.15 27.8099C13.77 28.1699 21.6 28.1699 23.4 27.8999C25.74 27.5399 27.18 26.1899 27.81 23.8499C28.26 22.0499 28.08 14.5799 27.9 12.9599ZM26.1 23.0399C25.83 24.8399 24.66 25.9199 22.86 26.0999C21.24 26.2799 13.95 26.3699 12.42 25.9199C10.98 25.5599 10.17 24.4799 9.9 23.0399C9.63 21.6899 9.63 14.6699 9.9 12.8699C10.17 11.1599 11.34 9.98992 13.14 9.80992C14.94 9.62992 21.33 9.62992 23.04 9.80992C24.84 10.0799 25.92 11.2499 26.1 13.0499C26.28 14.7599 26.37 21.2399 26.1 23.0399ZM18 12.7799C15.12 12.7799 12.78 15.1199 12.78 17.9999C12.78 20.8799 15.12 23.2199 18 23.2199C20.88 23.2199 23.22 20.8799 23.22 17.9999C23.22 15.1199 20.88 12.7799 18 12.7799ZM18 21.3299C16.11 21.3299 14.67 19.7999 14.67 17.9099C14.67 16.0199 16.2 14.5799 18.09 14.5799C19.98 14.5799 21.42 16.1099 21.42 17.9999C21.42 19.8899 19.8 21.3299 18 21.3299ZM24.57 12.5999C24.57 13.2299 24.03 13.7699 23.31 13.7699C22.68 13.7699 22.14 13.2299 22.14 12.5099C22.14 11.8799 22.68 11.3399 23.4 11.3399C24.03 11.4299 24.57 11.9699 24.57 12.5999Z" fill="white"/>
</g>
</g>
</g>
<defs>
<clipPath id="clip0_362_71">
<rect width="36" height="36" fill="white"/>
</clipPath>
</defs>
</svg>
