<svg width="36" height="36" viewBox="0 0 36 36" fill="none" xmlns="http://www.w3.org/2000/svg">
<g id="Twitter.svg" clip-path="url(#clip0_362_68)">
<path id="Vector" d="M18 0C8.1 0 0 8.1 0 18C0 27.9 8.1 36 18 36C27.9 36 36 27.9 36 18C36 8.1 27.9 0 18 0Z" fill="#5A5A5A"/>
<path id="Vector_2" d="M24.1583 11.5628C24.0182 11.4916 23.8817 11.4136 23.7495 11.329C23.365 11.0794 23.0124 10.7851 22.6995 10.4527C21.9164 9.57261 21.6239 8.67973 21.5162 8.05458H21.5205C21.4305 7.53568 21.4677 7.19995 21.4733 7.19995H17.9066V20.7474C17.9066 20.9293 17.9066 21.1091 17.8988 21.2867C17.8988 21.3088 17.8966 21.3292 17.8953 21.353C17.8953 21.3628 17.8953 21.373 17.8931 21.3832C17.8931 21.3857 17.8931 21.3883 17.8931 21.3908C17.8556 21.8769 17.6969 22.3465 17.4312 22.7582C17.1655 23.1699 16.8009 23.5112 16.3694 23.752C15.9196 24.0033 15.411 24.1352 14.8936 24.1345C13.2318 24.1345 11.8849 22.8035 11.8849 21.1597C11.8849 19.5158 13.2318 18.1848 14.8936 18.1848C15.2082 18.1845 15.5208 18.2331 15.8199 18.3289L15.8242 14.7616C14.9162 14.6464 13.9938 14.7173 13.1151 14.9698C12.2364 15.2223 11.4206 15.6509 10.719 16.2286C10.1042 16.7533 9.58735 17.3793 9.1917 18.0786C9.04114 18.3335 8.47307 19.3582 8.40428 21.0211C8.36101 21.965 8.64959 22.9429 8.78717 23.347V23.3555C8.8737 23.5935 9.20901 24.4056 9.75544 25.0903C10.1961 25.6395 10.7167 26.1219 11.3004 26.522V26.5135L11.3091 26.522C13.0358 27.6746 14.9503 27.5989 14.9503 27.5989C15.2817 27.5858 16.3919 27.5989 17.6526 27.012C19.0509 26.3614 19.847 25.392 19.847 25.392C20.3556 24.8128 20.76 24.1527 21.0428 23.4401C21.3656 22.6067 21.4733 21.6072 21.4733 21.2077V14.0204C21.5166 14.0459 22.0929 14.4203 22.0929 14.4203C22.0929 14.4203 22.9231 14.9431 24.2185 15.2835C25.1478 15.5257 26.3999 15.5767 26.3999 15.5767V12.0987C25.9612 12.1454 25.0704 12.0094 24.1583 11.5628Z" fill="white"/>
</g>
<defs>
<clipPath id="clip0_362_68">
<rect width="36" height="36" fill="white"/>
</clipPath>
</defs>
</svg>
