<svg width="36" height="36" viewBox="0 0 36 36" fill="none" xmlns="http://www.w3.org/2000/svg">
<g id="Group 72">
<path id="Vector" d="M18 36C27.9411 36 36 27.9411 36 18C36 8.05887 27.9411 0 18 0C8.05887 0 0 8.05887 0 18C0 27.9411 8.05887 36 18 36Z" fill="#5A5A5A"/>
<path id="Vector_2" d="M25.7256 12.8625C25.7256 12.78 25.7256 12.6975 25.6551 12.615V12.5325C25.4439 11.79 24.8807 11.295 24.1767 11.295H24.3175C24.3175 11.295 21.5718 10.8 17.8405 10.8C14.1796 10.8 11.3635 11.295 11.3635 11.295H11.5043C10.8003 11.295 10.237 11.79 10.0258 12.5325V12.615C10.0258 12.6975 10.0258 12.78 9.95544 12.8625C9.88504 13.6875 9.67383 15.42 9.67383 17.4C9.67383 19.38 9.88504 21.1125 9.95544 21.9375C9.95544 22.02 9.95544 22.1025 10.0258 22.185V22.2675C10.237 23.01 10.8003 23.505 11.5043 23.505H11.3635C11.3635 23.505 14.1092 24 17.8405 24C21.5014 24 24.3175 23.505 24.3175 23.505H24.1767C24.8807 23.505 25.4439 23.01 25.6551 22.2675V22.185C25.6551 22.1025 25.6552 22.02 25.7256 21.9375C25.796 21.1125 26.0072 19.38 26.0072 17.4C26.0072 15.42 25.8664 13.6875 25.7256 12.8625ZM20.2342 17.8125L16.9253 20.6175C16.8549 20.7 16.7845 20.7 16.7141 20.7C16.6437 20.7 16.5733 20.7 16.5029 20.6175C16.362 20.535 16.2916 20.37 16.2916 20.205V14.595C16.2916 14.43 16.362 14.265 16.5029 14.1825C16.6437 14.1 16.7845 14.1 16.9253 14.1825L20.2342 16.9875C20.3046 17.07 20.375 17.235 20.375 17.4C20.4454 17.565 20.375 17.73 20.2342 17.8125Z" fill="white"/>
</g>
</svg>
